# xmcd
#
# Track frame offsets:
#	150
#	22378
#	45215
#	67531
#	97678
#	119067
#	135878
#	153825
#	165089
#	186424
#	209068
#
# Disc length: 3072 seconds
#
# Revision: 1
# Processed by: cddbd v1.5.2PL0 Copyright (c) Steve Scherf et al.
# Submitted via: audiograbber 1.83.01
#
DISCID=840bfe0b
DTITLE=The Proof - The Proof
DYEAR=2013
DGENRE=Blues
TTITLE0=I Got The Proof
TTITLE1=Feel So Bad
TTITLE2=Hard Road
TTITLE3=Cold Feeling/ Since I've Been Loving You
TTITLE4=Until The Well Runs Dry
TTITLE5=Dangerous Man
TTITLE6=Same Old Blues
TTITLE7=Why Me
TTITLE8=Can't Find My Way Home
TTITLE9=Are You Made of Gold
TTITLE10=Some Kinda Wonderful
EXTD=
EXTT0=
EXTT1=
EXTT2=
EXTT3=
EXTT4=
EXTT5=
EXTT6=
EXTT7=
EXTT8=
EXTT9=
EXTT10=
PLAYORDER=
